<?xml version="1.0" encoding="UTF-8"?>
<svg width="20px" height="18px" viewBox="0 0 20 18" version="1.1" xmlns="http://www.w3.org/2000/svg" xmlns:xlink="http://www.w3.org/1999/xlink">
    <!-- Generator: Sketch 47.1 (45422) - http://www.bohemiancoding.com/sketch -->
    <title>10-Icons/Image-Hub/Ace</title>
    <desc>Created with Sketch.</desc>
    <defs></defs>
    <g id="Page" stroke="none" stroke-width="1" fill="none" fill-rule="evenodd">
        <g id="Atomic-Design-Libary" transform="translate(-1865.000000, -6453.000000)" fill-rule="nonzero" fill="#3D4A51">
            <g id="10-Icons/Image-Hub/Ace" transform="translate(1865.000000, 6451.000000)">
                <path d="M9,11 L9,18 L18,18 L18,11 L9,11 Z M0,3.5 L0,3 L0,3 C-6.76353751e-17,2.44771525 0.44771525,2 1,2 L1,2 L12,2 C12.2761424,2 12.5261424,2.11192881 12.7071068,2.29289322 C12.8880712,2.47385763 13,2.72385763 13,3 L13,7 L11,7 L11,4 L2,4 L2,13 L5,13 L5,15 L1,15 C0.723857625,15 0.473857625,14.8880712 0.292893219,14.7071068 C0.111928813,14.5261424 0,14.2761424 0,14 L0,3.5 Z M8,9 L19,9 C19.5522847,9 20,9.44771525 20,10 L20,19 C20,19.5522847 19.5522847,20 19,20 L8,20 C7.44771525,20 7,19.5522847 7,19 L7,10 C7,9.44771525 7.44771525,9 8,9 Z" id="Combined-Shape"></path>
            </g>
        </g>
    </g>
</svg>