<?xml version="1.0" encoding="UTF-8"?>
<svg width="20px" height="20px" viewBox="0 0 20 20" version="1.1" xmlns="http://www.w3.org/2000/svg" xmlns:xlink="http://www.w3.org/1999/xlink">
    <!-- Generator: Sketch 47.1 (45422) - http://www.bohemiancoding.com/sketch -->
    <title>Combined Shape</title>
    <desc>Created with Sketch.</desc>
    <defs></defs>
    <g id="Symbols" stroke="none" stroke-width="1" fill="none" fill-rule="evenodd">
        <g id="10-Icons/Measure/Ace" fill="#3D4A51">
            <path d="M1.5,8 L6,8 L6,10 L2,10 L2,14 L6,14 L6,5 C6,4.44771525 6.44771525,4 7,4 L7.5,4 L12,4 L12,1 L12,1 C12,0.44771525 12.4477153,1.01453063e-16 13,0 L14,0 L14,14 L18,14 L18,2 L14,2 L14,0 L18.5,0 L19,0 C19.5522847,-1.01453063e-16 20,0.44771525 20,1 L20,14.5 L20,15 C20,15.5522847 19.5522847,16 19,16 L1,16 C0.44771525,16 6.76353751e-17,15.5522847 0,15 L0,14.5 L0,9 C-6.76353751e-17,8.44771525 0.44771525,8 1,8 L1,8 L1.5,8 Z M12,14 L12,6 L8,6 L8,14 L12,14 Z M1,18 L19,18 C19.5522847,18 20,18.4477153 20,19 C20,19.5522847 19.5522847,20 19,20 L1,20 C0.44771525,20 6.76353751e-17,19.5522847 0,19 C-6.76353751e-17,18.4477153 0.44771525,18 1,18 L1,18 Z" id="Combined-Shape"></path>
        </g>
    </g>
</svg>