<?xml version="1.0" encoding="UTF-8"?>
<svg width="20px" height="20px" viewBox="0 0 20 20" version="1.1" xmlns="http://www.w3.org/2000/svg" xmlns:xlink="http://www.w3.org/1999/xlink">
    <!-- Generator: Sketch 47.1 (45422) - http://www.bohemiancoding.com/sketch -->
    <title>10-Icons/Calendar/Ace Copy 11</title>
    <desc>Created with Sketch.</desc>
    <defs></defs>
    <g id="Page" stroke="none" stroke-width="1" fill="none" fill-rule="evenodd">
        <g id="Atomic-Design-Libary" transform="translate(-1865.000000, -6924.000000)" fill="#3D4A51">
            <g id="10-Icons/Platforms/Blog/Ace" transform="translate(1865.000000, 6924.000000)">
                <path d="M1,0 L19,0 C19.5522847,-1.01453063e-16 20,0.44771525 20,1 L20,19 C20,19.5522847 19.5522847,20 19,20 L1,20 C0.44771525,20 6.76353751e-17,19.5522847 0,19 L0,1 L0,1 C-6.76353751e-17,0.44771525 0.44771525,1.01453063e-16 1,0 L1,0 Z M6,5 C5.44771525,5 5,5.44771525 5,6 L5,10 C5,10.5522847 5.44771525,11 6,11 C6.55228475,11 7,10.5522847 7,10 L7,6 C7,5.44771525 6.55228475,5 6,5 Z M6,13 C5.44771525,13 5,13.4477153 5,14 C5,14.5522847 5.44771525,15 6,15 L15,15 C15.5522847,15 16,14.5522847 16,14 C16,13.4477153 15.5522847,13 15,13 L6,13 Z M10,9 C9.44771525,9 9,9.44771525 9,10 C9,10.5522847 9.44771525,11 10,11 L15,11 C15.5522847,11 16,10.5522847 16,10 L16,10 C16,9.44771525 15.5522847,9 15,9 L15,9 L10,9 Z M10,5 C9.44771525,5 9,5.44771525 9,6 C9,6.55228475 9.44771525,7 10,7 L15,7 C15.5522847,7 16,6.55228475 16,6 L16,6 C16,5.44771525 15.5522847,5 15,5 L15,5 L10,5 Z" id="Combined-Shape"></path>
            </g>
        </g>
    </g>
</svg>