<?xml version="1.0" encoding="UTF-8"?>
<svg width="20px" height="20px" viewBox="0 0 20 20" version="1.1" xmlns="http://www.w3.org/2000/svg" xmlns:xlink="http://www.w3.org/1999/xlink">
    <!-- Generator: Sketch 47.1 (45422) - http://www.bohemiancoding.com/sketch -->
    <title>10-Icons/Check/Gerald Copy 2</title>
    <desc>Created with Sketch.</desc>
    <defs></defs>
    <g id="Pages" stroke="none" stroke-width="1" fill="none" fill-rule="evenodd">
        <g id="Atomic-Design-Libary" transform="translate(-1864.000000, -9120.000000)" fill="#FF8282">
            <g id="10-Icons/Exclamation-Mark/Corry" transform="translate(1864.000000, 9120.000000)">
                <path d="M10,20 C4.4771525,20 0,15.5228475 0,10 C0,4.4771525 4.4771525,0 10,0 C15.5228475,0 20,4.4771525 20,10 C20,15.5228475 15.5228475,20 10,20 Z M8.5351778,5.73648628 L9.22509097,11.2557916 C9.27823567,11.6809492 9.63965069,12 10.068117,12 C10.4965833,12 10.8579984,11.6809492 10.9111431,11.2557916 L11.6010562,5.73648628 L11.6010562,5.73648628 C11.7068836,4.88986733 11.1063534,4.11775704 10.2597344,4.01192967 C10.1961711,4.00398425 10.132175,4 10.068117,4 L10.068117,4 L10.068117,4 C9.21490949,4 8.52324814,4.69166136 8.52324814,5.54486888 C8.52324814,5.60892691 8.52723238,5.67292292 8.5351778,5.73648628 L8.5351778,5.73648628 Z M9,15 C9,15.5522847 9.44771525,16 10,16 C10.5522847,16 11,15.5522847 11,15 C11,14.4477153 10.5522847,14 10,14 C9.44771525,14 9,14.4477153 9,15 Z" id="Combined-Shape"></path>
            </g>
        </g>
    </g>
</svg>