<?xml version="1.0" encoding="UTF-8"?>
<svg width="15px" height="14px" viewBox="0 0 15 14" version="1.1" xmlns="http://www.w3.org/2000/svg" xmlns:xlink="http://www.w3.org/1999/xlink">
    <!-- Generator: Sketch 47.1 (45422) - http://www.bohemiancoding.com/sketch -->
    <title>07-Arrows/Long/Big/Ace</title>
    <desc>Created with Sketch.</desc>
    <defs></defs>
    <g id="Page" stroke="none" stroke-width="1" fill="none" fill-rule="evenodd">
        <g id="Atomic-Design-Libary" transform="translate(-1867.000000, -6020.000000)" fill-rule="nonzero" fill="#3D4A51">
            <g id="07-Arrows/Long/Big/Ace" transform="translate(1865.000000, 6017.000000)">
                <path d="M14.1371696,10.9057137 L2.8583722,10.9057137 C2.38430632,10.9057137 2,10.5214074 2,10.0473415 C2,9.57327562 2.38430632,9.18896929 2.8583722,9.18896929 L14.1970797,9.18896929 L9.86566353,4.46213703 C9.55094745,4.11869044 9.55094745,3.59166201 9.86566353,3.24821542 L9.86566353,3.24821542 L9.86566353,3.24821542 C9.88048844,3.23203714 9.89601218,3.2165134 9.91219047,3.20168848 C10.2193637,2.92021133 10.6965592,2.94104216 10.9780363,3.24821542 L10.9780363,3.24821542 L16.8688964,9.67685365 C17.0440486,9.86799553 17.0440486,10.1613081 16.8688964,10.35245 L10.9986929,16.7585459 C10.983868,16.7747242 10.9683443,16.7902479 10.952166,16.8050728 C10.6449927,17.08655 10.1677973,17.0657191 9.88632012,16.7585459 C9.57160405,16.4150993 9.57160405,15.8880709 9.88632012,15.5446243 L9.88632012,15.5446243 L14.1371696,10.9057137 Z" id="Combined-Shape"></path>
            </g>
        </g>
    </g>
</svg>