<?xml version="1.0" encoding="UTF-8"?>
<svg width="16px" height="10px" viewBox="0 0 16 10" version="1.1" xmlns="http://www.w3.org/2000/svg" xmlns:xlink="http://www.w3.org/1999/xlink">
    <!-- Generator: Sketch 47.1 (45422) - http://www.bohemiancoding.com/sketch -->
    <title>10-Icons/Orientation/Horizontal/Ace Copy 3</title>
    <desc>Created with Sketch.</desc>
    <defs></defs>
    <g id="Pages" stroke="none" stroke-width="1" fill="none" fill-rule="evenodd">
        <g id="Atomic-Design-Libary" transform="translate(-1853.000000, -7743.000000)" fill="#3D4A51">
            <g id="10-Icons/Text-Column/Ace" transform="translate(1851.000000, 7738.000000)">
                <path d="M3,5 L17,5 C17.5522847,5 18,5.44771525 18,6 L18,6 C18,6.55228475 17.5522847,7 17,7 L3,7 C2.44771525,7 2,6.55228475 2,6 L2,6 L2,6 C2,5.44771525 2.44771525,5 3,5 L3,5 Z M3,9 L17,9 C17.5522847,9 18,9.44771525 18,10 C18,10.5522847 17.5522847,11 17,11 L3,11 C2.44771525,11 2,10.5522847 2,10 C2,9.44771525 2.44771525,9 3,9 L3,9 Z M3,13 L17,13 C17.5522847,13 18,13.4477153 18,14 C18,14.5522847 17.5522847,15 17,15 L3,15 C2.44771525,15 2,14.5522847 2,14 C2,13.4477153 2.44771525,13 3,13 L3,13 Z" id="Combined-Shape"></path>
            </g>
        </g>
    </g>
</svg>