<?xml version="1.0" encoding="UTF-8"?>
<svg width="20px" height="20px" viewBox="0 0 20 20" version="1.1" xmlns="http://www.w3.org/2000/svg" xmlns:xlink="http://www.w3.org/1999/xlink">
    <!-- Generator: Sketch 47.1 (45422) - http://www.bohemiancoding.com/sketch -->
    <title>10-Icons/Calendar/Ace Copy 4</title>
    <desc>Created with Sketch.</desc>
    <defs></defs>
    <g id="Page" stroke="none" stroke-width="1" fill="none" fill-rule="evenodd">
        <g id="Atomic-Design-Libary" transform="translate(-1865.000000, -6584.000000)" fill="#3D4A51">
            <g id="10-Icons/Task/Ace" transform="translate(1865.000000, 6584.000000)">
                <path d="M8.91223526,8.51881321 L13.1290689,4.29419653 L13.1284166,4.29354548 C13.5185807,3.90266129 14.1517454,3.90207751 14.5426296,4.29224157 C14.5428471,4.29245869 14.5430645,4.2926759 14.5432819,4.29289322 L14.5426302,4.29354488 L14.5419779,4.29419713 C14.9322477,4.68446684 14.9325393,5.31712906 14.5426296,5.70775844 L9.7067247,10.5538947 C9.52873312,10.7322148 9.3001227,10.8292324 9.06705184,10.844905 C8.74267614,10.9254005 8.38535465,10.8388744 8.13180703,10.5853268 C8.12843642,10.5819562 8.1250903,10.5785612 8.12176895,10.575142 L5.40553054,7.77891628 L5.40553054,7.77891628 C5.02465553,7.38682533 5.02919168,6.76156004 5.41571534,6.37503638 L5.42590121,6.3648505 C5.8108,5.97995171 6.43484424,5.97995171 6.81974303,6.3648505 C6.82311365,6.36822112 6.82645976,6.37161614 6.82978112,6.37503531 L6.82978112,6.37503531 L8.91223526,8.51881321 Z M2,18 L19,18 C19.5522847,18 20,18.4477153 20,19 C20,19.5522847 19.5522847,20 19,20 L1,20 C0.723857625,20 0.473857625,19.8880712 0.292893219,19.7071068 C0.111928813,19.5261424 0,19.2761424 0,19 L0,2 L2,2 L2,18 Z M18,2 L20,2 L20,6 C20,6.55228475 19.5522847,7 19,7 C18.4477153,7 18,6.55228475 18,6 L18,3.33270814 L18,2 Z M1,0 L19,0 C19.5522847,-1.01453063e-16 20,0.44771525 20,1 L20,2 L0,2 L0,1 L0,1 C-6.76353751e-17,0.44771525 0.44771525,1.01453063e-16 1,0 L1,0 Z M15,9 L19,9 C19.5522847,9 20,9.44771525 20,10 C20,10.5522847 19.5522847,11 19,11 L15,11 C14.4477153,11 14,10.5522847 14,10 C14,9.44771525 14.4477153,9 15,9 Z M11,13 L19,13 C19.5522847,13 20,13.4477153 20,14 C20,14.5522847 19.5522847,15 19,15 L11,15 C10.4477153,15 10,14.5522847 10,14 C10,13.4477153 10.4477153,13 11,13 Z" id="Combined-Shape"></path>
            </g>
        </g>
    </g>
</svg>