<?xml version="1.0" encoding="UTF-8"?>
<svg width="12px" height="15px" viewBox="0 0 12 15" version="1.1" xmlns="http://www.w3.org/2000/svg" xmlns:xlink="http://www.w3.org/1999/xlink">
    <!-- Generator: Sketch 47.1 (45422) - http://www.bohemiancoding.com/sketch -->
    <title>10-Icons/Orientation/Horizontal/Ace Copy 4</title>
    <desc>Created with Sketch.</desc>
    <defs></defs>
    <g id="Pages" stroke="none" stroke-width="1" fill="none" fill-rule="evenodd">
        <g id="Atomic-Design-Libary" transform="translate(-1856.000000, -7780.000000)" fill="#3D4A51">
            <g id="10-Icons/Video/Ace" transform="translate(1851.000000, 7778.000000)">
                <path d="M6.69555731,2.28152824 L15.6781128,8.57118129 L15.6781128,8.57118129 C16.130518,8.88795881 16.2404659,9.51150459 15.9236884,9.96390977 C15.8304032,10.0971349 15.7105151,10.2006623 15.5762288,10.2723399 L6.63230202,16.3176076 C6.25402688,16.5732866 5.76271043,16.5357238 5.42889177,16.2549261 C5.16964201,16.0742436 5,15.7739048 5,15.4339441 L5,3 L5,3 C5,2.44771525 5.44771525,2 6,2 L6,2 L6,2 C6.27031446,2 6.51557835,2.10725421 6.69555731,2.28152824 Z M7,4.93625049 L7,13.6554044 L13.3360644,9.37281055 L7,4.93625049 Z" id="Combined-Shape"></path>
            </g>
        </g>
    </g>
</svg>