<?xml version="1.0" encoding="UTF-8"?>
<svg width="16px" height="18px" viewBox="0 0 16 18" version="1.1" xmlns="http://www.w3.org/2000/svg" xmlns:xlink="http://www.w3.org/1999/xlink">
    <!-- Generator: Sketch 47.1 (45422) - http://www.bohemiancoding.com/sketch -->
    <title>10-Icons/Calendar/Ace Copy 13</title>
    <desc>Created with Sketch.</desc>
    <defs></defs>
    <g id="Page" stroke="none" stroke-width="1" fill="none" fill-rule="evenodd" opacity="0.900000036">
        <g id="Atomic-Design-Libary" transform="translate(-1867.000000, -7106.000000)" fill="#3D4A51">
            <g id="10-Icons/Trash/Ace" transform="translate(1865.000000, 7105.000000)">
                <path d="M14,8 L16,8 L16,18 C16,18.5522847 15.5522847,19 15,19 L14,19 L14,8 Z M12,3 L14,3 L14,6 L12,6 L12,3 Z M6,3 L8,3 L8,6 L6,6 L6,3 Z M4,8 L6,8 L6,19 L5,19 C4.44771525,19 4,18.5522847 4,18 L4,8 Z M6,17 L14,17 L14,19 L6,19 L6,17 Z M7,1 L13,1 C13.5522847,1 14,1.44771525 14,2 L14,3 L6,3 L6,2 L6,2 C6,1.44771525 6.44771525,1 7,1 Z M3,6 L17,6 C17.5522847,6 18,6.44771525 18,7 C18,7.55228475 17.5522847,8 17,8 L3,8 C2.44771525,8 2,7.55228475 2,7 C2,6.44771525 2.44771525,6 3,6 L3,6 Z" id="Combined-Shape"></path>
            </g>
        </g>
    </g>
</svg>