<?xml version="1.0" encoding="UTF-8"?>
<svg width="16px" height="15px" viewBox="0 0 16 15" version="1.1" xmlns="http://www.w3.org/2000/svg" xmlns:xlink="http://www.w3.org/1999/xlink">
    <!-- Generator: Sketch 47.1 (45422) - http://www.bohemiancoding.com/sketch -->
    <title>10-Icons/Orientation/Horizontal/Ace Copy 5</title>
    <desc>Created with Sketch.</desc>
    <defs></defs>
    <g id="Pages" stroke="none" stroke-width="1" fill="none" fill-rule="evenodd">
        <g id="Atomic-Design-Libary" transform="translate(-1853.000000, -7825.000000)" fill="#3D4A51">
            <g id="10-Icons/Image/Ace" transform="translate(1851.000000, 7823.000000)">
                <path d="M10.0606602,11.5857864 L11.3535534,10.2928932 C11.5488155,10.0976311 11.8047379,10 12.0606602,10 C12.3165825,10 12.5725048,10.0976311 12.767767,10.2928932 L16,13.5251263 L16,4 L4,4 L4,9.64644661 L5.35355339,8.29289322 L5.35355339,8.29289322 C5.54881554,8.09763107 5.80473785,8 6.06066017,8 C6.31658249,8 6.57250481,8.09763107 6.76776695,8.29289322 L10.0606602,11.5857864 Z M8.64644661,13 L6.06066017,10.4142136 L4,12.4748737 L4,15 L6.64644661,15 L8.64644661,13 Z M14.6464466,15 L12.0606602,12.4142136 L9.47487373,15 L14.6464466,15 Z M3,2 L17,2 C17.5522847,2 18,2.44771525 18,3 L18,16 C18,16.5522847 17.5522847,17 17,17 L3,17 C2.44771525,17 2,16.5522847 2,16 L2,3 L2,3 C2,2.44771525 2.44771525,2 3,2 L3,2 Z" id="Combined-Shape"></path>
            </g>
        </g>
    </g>
</svg>