<?xml version="1.0" encoding="UTF-8"?>
<svg width="18px" height="18px" viewBox="0 0 18 18" version="1.1" xmlns="http://www.w3.org/2000/svg" xmlns:xlink="http://www.w3.org/1999/xlink">
    <!-- Generator: Sketch 47.1 (45422) - http://www.bohemiancoding.com/sketch -->
    <title>10-Icons/Calendar/Ace Copy 12</title>
    <desc>Created with Sketch.</desc>
    <defs></defs>
    <g id="Page" stroke="none" stroke-width="1" fill="none" fill-rule="evenodd">
        <g id="Atomic-Design-Libary" transform="translate(-1866.000000, -7055.000000)" fill="#3D4A51">
            <g id="10-Icons/Link/Ace" transform="translate(1865.000000, 7054.000000)">
                <path d="M15.5512152,3 L12,3 C11.4477153,3 11,2.55228475 11,2 L11,2 L11,2 C11,1.44771525 11.4477153,1 12,1 L18,1 C18.2761424,1 18.5261424,1.11192881 18.7071068,1.29289322 C18.8880712,1.47385763 19,1.72385763 19,2 L19,8 C19,8.55228475 18.5522847,9 18,9 C17.4477153,9 17,8.55228475 17,8 L17,4.37768617 L11.7449483,9.93008598 C11.3756137,10.3203188 10.7598625,10.3372601 10.3696297,9.96792547 C10.3631511,9.96179386 10.3567572,9.95557343 10.3504497,9.94926595 L10.3312625,9.93007872 C9.94831238,9.54712864 9.93980949,8.92891754 10.3120825,8.53558009 L15.5512152,3 Z M1,2.5 L1,2 L1,2 C1,1.44771525 1.44771525,1 2,1 L2,1 L8,1 C8.55228475,1 9,1.44771525 9,2 L9,2 C9,2.55228475 8.55228475,3 8,3 L3,3 L3,17 L3,17 L17,17 L17,13.8657914 L17,13 C17,12.4477153 17.4477153,12 18,12 C18.5522847,12 19,12.4477153 19,13 L19,18 C19,18.2761424 18.8880712,18.5261424 18.7071068,18.7071068 C18.5261424,18.8880712 18.2761424,19 18,19 L3,19 L2,19 C1.44771525,19 1,18.5522847 1,18 L1,2.5 Z" id="Combined-Shape"></path>
            </g>
        </g>
    </g>
</svg>