<?xml version="1.0" encoding="UTF-8"?>
<svg width="20px" height="20px" viewBox="0 0 20 20" version="1.1" xmlns="http://www.w3.org/2000/svg" xmlns:xlink="http://www.w3.org/1999/xlink">
    <!-- Generator: Sketch 47.1 (45422) - http://www.bohemiancoding.com/sketch -->
    <title>10-Icons/Check/Gerald</title>
    <desc>Created with Sketch.</desc>
    <defs></defs>
    <g id="Pages" stroke="none" stroke-width="1" fill="none" fill-rule="evenodd">
        <g id="Atomic-Design-Libary" transform="translate(-1864.000000, -9028.000000)" fill="#46D28B">
            <g id="10-Icons/Success/Gerald" transform="translate(1864.000000, 9028.000000)">
                <path d="M8.01128901,13.4957958 C8.03022826,13.5201038 8.05087302,13.5435137 8.0732233,13.565864 C8.36611652,13.8587572 8.84099026,13.8587572 9.13388348,13.565864 L15.1442911,7.55545635 L15.1442911,7.55545635 C15.4371843,7.26256313 15.4371843,6.7876894 15.1442911,6.49479618 C14.8513979,6.20190296 14.3765242,6.20190296 14.0836309,6.49479618 L8.52297077,12.0554564 L5.51776695,9.05025253 L5.51776695,9.05025253 C5.22487373,8.75735931 4.75,8.75735931 4.45710678,9.05025253 C4.16421356,9.34314575 4.16421356,9.81801948 4.45710678,10.1109127 L7.6390873,13.2928932 C7.74507395,13.3988799 7.87488975,13.4665141 8.01128901,13.4957958 Z M10,20 C4.4771525,20 0,15.5228475 0,10 C0,4.4771525 4.4771525,0 10,0 C15.5228475,0 20,4.4771525 20,10 C20,15.5228475 15.5228475,20 10,20 Z" id="Combined-Shape"></path>
            </g>
        </g>
    </g>
</svg>