<?xml version="1.0" encoding="UTF-8"?>
<svg width="15px" height="14px" viewBox="0 0 15 14" version="1.1" xmlns="http://www.w3.org/2000/svg" xmlns:xlink="http://www.w3.org/1999/xlink">
    <!-- Generator: Sketch 47.1 (45422) - http://www.bohemiancoding.com/sketch -->
    <title>07-Arrows/Small/Ace Copy 2</title>
    <desc>Created with Sketch.</desc>
    <defs></defs>
    <g id="Page" stroke="none" stroke-width="1" fill="none" fill-rule="evenodd">
        <g id="Atomic-Design-Libary" transform="translate(-1867.000000, -6149.000000)" fill-rule="nonzero" fill="#3D4A51">
            <g id="10-Icons/Add/Ace" transform="translate(1865.000000, 6146.000000)">
                <path d="M10.5,9.25 L10.5,3.75 L10.5,3.75 C10.5,3.33578644 10.1642136,3 9.75,3 C9.33578644,3 9,3.33578644 9,3.75 L9,3.75 L9,9.25 L3.5,9.25 C3.08578644,9.25 2.75,9.58578644 2.75,10 C2.75,10.4142136 3.08578644,10.75 3.5,10.75 L9,10.75 L9,16.25 C9,16.6642136 9.33578644,17 9.75,17 C10.1642136,17 10.5,16.6642136 10.5,16.25 L10.5,10.75 L16,10.75 C16.4142136,10.75 16.75,10.4142136 16.75,10 C16.75,9.58578644 16.4142136,9.25 16,9.25 L10.5,9.25 Z" id="Combined-Shape"></path>
            </g>
        </g>
    </g>
</svg>