<?xml version="1.0" encoding="UTF-8"?>
<svg width="20px" height="20px" viewBox="0 0 20 20" version="1.1" xmlns="http://www.w3.org/2000/svg" xmlns:xlink="http://www.w3.org/1999/xlink">
    <!-- Generator: Sketch 47.1 (45422) - http://www.bohemiancoding.com/sketch -->
    <title>10-Icons/Calendar/Ace Copy 5</title>
    <desc>Created with Sketch.</desc>
    <defs></defs>
    <g id="Page" stroke="none" stroke-width="1" fill="none" fill-rule="evenodd">
        <g id="Atomic-Design-Libary" transform="translate(-1865.000000, -6631.000000)" fill="#3D4A51">
            <g id="10-Icons/Comment/Ace" transform="translate(1865.000000, 6631.000000)">
                <path d="M0.292893219,16.7071068 C0.111928813,16.5261424 0,16.2761424 0,16 L0,2 L2,2 L2,15 L5,15 C5.31511085,15 5.59618044,15.145748 5.77947354,15.3735087 L7.85295307,17.5080477 L9.99894698,15.2988589 L9.99894698,15.2988589 C10.0022683,15.2954397 10.0056145,15.2920447 10.0089851,15.2886741 C10.2387452,15.058914 10.5537207,14.9663061 10.8521752,15.0108503 C10.9004133,15.0037028 10.9497742,15 11,15 L18,15 L18,5.99812443 L18,2 L20,2 L20,16 C20,16.2761424 19.8880712,16.5261424 19.7071068,16.7071068 C19.5261424,16.8880712 19.2761424,17 19,17 L11.1344407,17 L8.70695916,19.4989656 C8.7036378,19.5023848 8.70029168,19.5057798 8.69692107,19.5091504 C8.46696137,19.7391101 8.15163812,19.8316792 7.85295307,19.7868578 C7.55426802,19.8316792 7.23894477,19.7391101 7.00898507,19.5091504 C7.00561446,19.5057798 7.00226834,19.5023848 6.99894698,19.4989656 L4.57146544,17 L1,17 C0.723857625,17 0.473857625,16.8880712 0.292893219,16.7071068 Z M1,0 L19,0 C19.5522847,-1.01453063e-16 20,0.44771525 20,1 L20,2 L0,2 L0,1 L0,1 C-6.76353751e-17,0.44771525 0.44771525,1.01453063e-16 1,0 L1,0 Z M6,5 L14,5 C14.5522847,5 15,5.44771525 15,6 C15,6.55228475 14.5522847,7 14,7 L6,7 C5.44771525,7 5,6.55228475 5,6 C5,5.44771525 5.44771525,5 6,5 Z M6,9 L14,9 C14.5522847,9 15,9.44771525 15,10 C15,10.5522847 14.5522847,11 14,11 L6,11 C5.44771525,11 5,10.5522847 5,10 C5,9.44771525 5.44771525,9 6,9 Z" id="Combined-Shape"></path>
            </g>
        </g>
    </g>
</svg>