<?xml version="1.0" encoding="UTF-8"?>
<svg width="20px" height="20px" viewBox="0 0 20 20" version="1.1" xmlns="http://www.w3.org/2000/svg" xmlns:xlink="http://www.w3.org/1999/xlink">
    <!-- Generator: Sketch 47.1 (45422) - http://www.bohemiancoding.com/sketch -->
    <title>10-Icons/Calendar/Ace Copy 9</title>
    <desc>Created with Sketch.</desc>
    <defs></defs>
    <g id="Page" stroke="none" stroke-width="1" fill="none" fill-rule="evenodd">
        <g id="Atomic-Design-Libary" transform="translate(-1865.000000, -6882.000000)" fill="#3D4A51">
            <g id="10-Icons/Platforms/LinkedIn/Ace" transform="translate(1865.000000, 6882.000000)">
                <path d="M1,0 L19,0 C19.5522847,-1.01453063e-16 20,0.44771525 20,1 L20,19 C20,19.5522847 19.5522847,20 19,20 L1,20 C0.44771525,20 6.76353751e-17,19.5522847 0,19 L0,1 L0,1 C-6.76353751e-17,0.44771525 0.44771525,1.01453063e-16 1,0 L1,0 Z M16,15 L16,11.2534838 C16,9.4141548 15.5804708,8 13.3076708,8 C12.2158299,8 11.4835455,8.56592699 11.1836816,9.1032263 L11.1531348,9.1032263 L11.1531348,8.16911542 L9,8.16911542 L9,15 L11.2436544,15 L11.2436544,11.6211375 C11.2436544,10.7304983 11.4218913,9.8668964 12.5899592,9.8668964 C13.7417728,9.8668964 13.7563456,10.8858301 13.7563456,11.6781278 L13.7563456,15 L16,15 Z M5.99989228,7 C6.55165356,7 7,6.55194316 7,6.00032296 C7,5.44805684 6.55165356,5 5.99989228,5 C5.44705375,5 5,5.44805684 5,6.00032296 C5,6.55194316 5.44705375,7 5.99989228,7 Z M5,15 L7,15 L7,8 L5,8 L5,15 Z" id="Combined-Shape"></path>
            </g>
        </g>
    </g>
</svg>