<?xml version="1.0" encoding="UTF-8"?>
<svg width="12px" height="8px" viewBox="0 0 12 8" version="1.1" xmlns="http://www.w3.org/2000/svg" xmlns:xlink="http://www.w3.org/1999/xlink">
    <!-- Generator: Sketch 47.1 (45422) - http://www.bohemiancoding.com/sketch -->
    <title>07-Arrows/Small/Ace Copy 3</title>
    <desc>Created with Sketch.</desc>
    <defs></defs>
    <g id="Page" stroke="none" stroke-width="1" fill="none" fill-rule="evenodd">
        <g id="Atomic-Design-Libary" transform="translate(-1869.000000, -6195.000000)" fill-rule="nonzero" fill="#3D4A51">
            <g id="10-Icons/Check/Ace" transform="translate(1865.000000, 6189.000000)">
                <path d="M12.2073591,13.2401224 C12.2379395,13.2439186 12.2690909,13.2458739 12.3006989,13.2458739 C12.7149125,13.2458739 13.0506989,12.9100875 13.0506989,12.4958739 L13.0506989,3.99587393 L13.0506989,3.99587393 C13.0506989,3.58166036 12.7149125,3.24587393 12.3006989,3.24587393 C11.8864854,3.24587393 11.5506989,3.58166036 11.5506989,3.99587393 L11.5506989,3.99587393 L11.5506989,11.859835 L7.30069895,11.859835 C6.88648539,11.859835 6.55069895,12.1956214 6.55069895,12.609835 C6.55069895,13.0240485 6.88648539,13.359835 7.30069895,13.359835 L11.8006989,13.359835 C11.9505867,13.359835 12.0902049,13.3158659 12.2073591,13.2401224 Z" id="Combined-Shape" transform="translate(9.800699, 8.302854) rotate(45.000000) translate(-9.800699, -8.302854) "></path>
            </g>
        </g>
    </g>
</svg>