<?xml version="1.0" encoding="UTF-8"?>
<svg width="20px" height="20px" viewBox="0 0 20 20" version="1.1" xmlns="http://www.w3.org/2000/svg" xmlns:xlink="http://www.w3.org/1999/xlink">
    <!-- Generator: Sketch 47.1 (45422) - http://www.bohemiancoding.com/sketch -->
    <title>10-Icons/Calendar/Ace Copy 11</title>
    <desc>Created with Sketch.</desc>
    <defs></defs>
    <g id="Pages" stroke="none" stroke-width="1" fill="none" fill-rule="evenodd">
        <g id="Atomic-Design-Libary" transform="translate(-1865.000000, -7234.000000)" fill="#3D4A51">
            <g id="10-Icons/Platforms/Blog/Ace" transform="translate(1865.000000, 7234.000000)">
                <path d="M1,0 L19,0 C19.5522847,-1.01453063e-16 20,0.44771525 20,1 L20,19 C20,19.5522847 19.5522847,20 19,20 L1,20 C0.44771525,20 6.76353751e-17,19.5522847 0,19 L0,1 L0,1 C-6.76353751e-17,0.44771525 0.44771525,1.01453063e-16 1,0 L1,0 Z M5,13 L5,13 C4.44771525,13 4,13.4477153 4,14 C4,14.5522847 4.44771525,15 5,15 L15,15 C15.5522847,15 16,14.5522847 16,14 C16,13.4477153 15.5522847,13 15,13 L15,13 L5,13 Z M5,9 L5,9 C4.44771525,9 4,9.44771525 4,10 C4,10.5522847 4.44771525,11 5,11 L15,11 C15.5522847,11 16,10.5522847 16,10 C16,9.44771525 15.5522847,9 15,9 L15,9 L5,9 Z M5,5 L5,5 C4.44771525,5 4,5.44771525 4,6 C4,6.55228475 4.44771525,7 5,7 L15,7 C15.5522847,7 16,6.55228475 16,6 C16,5.44771525 15.5522847,5 15,5 L15,5 L5,5 Z" id="Combined-Shape"></path>
            </g>
        </g>
    </g>
</svg>