<?xml version="1.0" encoding="UTF-8"?>
<svg width="14px" height="17px" viewBox="0 0 14 17" version="1.1" xmlns="http://www.w3.org/2000/svg" xmlns:xlink="http://www.w3.org/1999/xlink">
    <!-- Generator: Sketch 47.1 (45422) - http://www.bohemiancoding.com/sketch -->
    <title>10-Icons/Bold/Ace Copy</title>
    <desc>Created with Sketch.</desc>
    <defs></defs>
    <g id="Page" stroke="none" stroke-width="1" fill="none" fill-rule="evenodd">
        <g id="Atomic-Design-Libary" transform="translate(-1867.000000, -7330.000000)" fill="#3D4A51">
            <g id="10-Icons/Textformatting/Underline/Ace" transform="translate(1864.000000, 7327.000000)">
                <path d="M4,18 L16,18 C16.5522847,18 17,18.4477153 17,19 C17,19.5522847 16.5522847,20 16,20 L4,20 C3.44771525,20 3,19.5522847 3,19 C3,18.4477153 3.44771525,18 4,18 L4,18 Z M16,14.9938744 L12.9173047,14.9938744 L12.3614089,13.2082695 L8.67228178,13.2082695 L8.08269525,14.9938744 L5,14.9938744 L9.36294028,3 L11.6370597,3 L16,14.9938744 Z M11.5865237,10.7488515 L10.575804,7.5482389 L9.49770291,10.7488515 L11.5865237,10.7488515 Z" id="Combined-Shape"></path>
            </g>
        </g>
    </g>
</svg>