<?xml version="1.0" encoding="UTF-8"?>
<svg width="9px" height="14px" viewBox="0 0 9 14" version="1.1" xmlns="http://www.w3.org/2000/svg" xmlns:xlink="http://www.w3.org/1999/xlink">
    <!-- Generator: Sketch 47.1 (45422) - http://www.bohemiancoding.com/sketch -->
    <title>07-Arrows/Small/Ace Copy</title>
    <desc>Created with Sketch.</desc>
    <defs></defs>
    <g id="Page" stroke="none" stroke-width="1" fill="none" fill-rule="evenodd">
        <g id="Atomic-Design-Libary" transform="translate(-1871.000000, -6105.000000)" fill="#3D4A51">
            <g id="07-Arrows/Double" transform="translate(1865.000000, 6102.000000)">
                <path d="M10.5961941,3.35355339 L14.14386,6.90121933 L14.14386,6.90121933 C14.2219649,6.97932419 14.2219649,7.10595719 14.14386,7.18406204 C14.1063527,7.22156932 14.055482,7.24264069 14.0024387,7.24264069 L6.48284271,7.24264069 L6.48284271,7.24264069 C6.37238576,7.24264069 6.28284271,7.15309764 6.28284271,7.04264069 C6.28284271,6.98959739 6.30391408,6.93872661 6.34142136,6.90121933 L9.8890873,3.35355339 L9.8890873,3.35355339 C10.0843494,3.15829124 10.4009319,3.15829124 10.5961941,3.35355339 L10.5961941,3.35355339 Z M10.5961941,16.131728 C10.4009319,16.3269901 10.0843494,16.3269901 9.8890873,16.131728 L9.8890873,16.131728 L6.34142136,12.584062 C6.30391408,12.5465548 6.28284271,12.495684 6.28284271,12.4426407 C6.28284271,12.3321837 6.37238576,12.2426407 6.48284271,12.2426407 L6.48284271,12.2426407 L14.0024387,12.2426407 C14.055482,12.2426407 14.1063527,12.2637121 14.14386,12.3012193 C14.2219649,12.3793242 14.2219649,12.5059572 14.14386,12.584062 L14.14386,12.584062 L10.5961941,16.131728 Z" id="Combined-Shape"></path>
            </g>
        </g>
    </g>
</svg>