<?xml version="1.0" encoding="UTF-8"?>
<svg width="20px" height="20px" viewBox="0 0 20 20" version="1.1" xmlns="http://www.w3.org/2000/svg" xmlns:xlink="http://www.w3.org/1999/xlink">
    <!-- Generator: Sketch 47.1 (45422) - http://www.bohemiancoding.com/sketch -->
    <title>10-Icons/Calendar/Ace Copy 7</title>
    <desc>Created with Sketch.</desc>
    <defs></defs>
    <g id="Page" stroke="none" stroke-width="1" fill="none" fill-rule="evenodd">
        <g id="Atomic-Design-Libary" transform="translate(-1865.000000, -6788.000000)" fill="#3D4A51">
            <g id="10-Icons/Platforms/Twitter/Ace" transform="translate(1865.000000, 6788.000000)">
                <path d="M1,0 L19,0 C19.5522847,-1.01453063e-16 20,0.44771525 20,1 L20,19 C20,19.5522847 19.5522847,20 19,20 L1,20 C0.44771525,20 6.76353751e-17,19.5522847 0,19 L0,1 L0,1 C-6.76353751e-17,0.44771525 0.44771525,1.01453063e-16 1,0 L1,0 Z M15.7006198,7.92145044 C15.7006198,7.80806113 15.7006198,7.69518258 15.6929583,7.58281479 C16.2056619,7.21195001 16.6482888,6.75277437 17,6.2267399 C16.5218751,6.43860425 16.0146367,6.5775317 15.4952932,6.63892537 C16.0421668,6.3115265 16.451492,5.79657558 16.647063,5.18989168 C16.1328271,5.49507237 15.570171,5.71010346 14.983509,5.8257912 C13.9913525,4.77081091 12.3318335,4.71988787 11.2768021,5.71204436 C10.5964663,6.35187675 10.3077321,7.30531743 10.5189325,8.21513897 C8.41249615,8.10951325 6.44994167,7.11459865 5.11966029,5.47796182 C4.42430799,6.67498522 4.77949235,8.20640493 5.93075141,8.97515383 C5.51381585,8.96279337 5.10602293,8.85032343 4.74169592,8.64724419 L4.74169592,8.68044377 C4.74205345,9.9275219 5.62112708,11.0016047 6.8434843,11.2485585 C6.45780741,11.3537245 6.05313015,11.3690985 5.66055796,11.2935056 C6.0037394,12.3606931 6.98731507,13.0917988 8.10813268,13.1128422 C7.18043444,13.8419049 6.03448731,14.2376948 4.85457447,14.2365201 C4.64613222,14.2361115 4.43789428,14.2234956 4.23093325,14.1987237 C5.42897817,14.9675747 6.82300272,15.3753676 8.24654936,15.3734778 C13.0650844,15.3755208 15.7006198,11.3833998 15.7006198,7.92145044 Z" id="Combined-Shape"></path>
            </g>
        </g>
    </g>
</svg>