<?xml version="1.0" encoding="UTF-8"?>
<svg width="20px" height="20px" viewBox="0 0 20 20" version="1.1" xmlns="http://www.w3.org/2000/svg" xmlns:xlink="http://www.w3.org/1999/xlink">
    <!-- Generator: Sketch 47.1 (45422) - http://www.bohemiancoding.com/sketch -->
    <title>10-Icons/Facebook/Thumbnail Copy 3</title>
    <desc>Created with Sketch.</desc>
    <defs></defs>
    <g id="Page" stroke="none" stroke-width="1" fill="none" fill-rule="evenodd">
        <g id="Atomic-Design-Libary" transform="translate(-1925.000000, -6880.000000)" fill="#3D4A51">
            <g id="10-Icons/Platforms/LinkedIn/Thumbnail" transform="translate(1925.000000, 6880.000000)">
                <path d="M20,20 L15.7263725,20 L15.7263725,13.6726245 C15.7263725,12.1634858 15.6986148,10.2226598 13.5046841,10.2226598 C11.2797929,10.2226598 10.9402941,11.8676159 10.9402941,13.5640715 L10.9402941,20 L6.66666667,20 L6.66666667,6.98879128 L10.7678757,6.98879128 L10.7678757,8.76805009 L10.8260603,8.76805009 C11.3972296,7.74462284 12.792057,6.66666667 14.8717538,6.66666667 C19.2008968,6.66666667 20,9.36029486 20,12.8637787 L20,20 Z M2.22198284,4.44444444 C0.993452787,4.44444444 0,3.44876257 0,2.22293992 C0,0.99568187 0.993452787,0 2.22198284,0 C3.44811902,0 4.44444444,0.99568187 4.44444444,2.22293992 C4.44444444,3.44876257 3.44811902,4.44444444 2.22198284,4.44444444 L2.22198284,4.44444444 Z M0,20 L4.44444444,20 L4.44444444,6.66666667 L0,6.66666667 L0,20 Z" id="Fill-1"></path>
            </g>
        </g>
    </g>
</svg>