<?xml version="1.0" encoding="UTF-8"?>
<svg width="20px" height="20px" viewBox="0 0 20 20" version="1.1" xmlns="http://www.w3.org/2000/svg" xmlns:xlink="http://www.w3.org/1999/xlink">
    <!-- Generator: Sketch 47.1 (45422) - http://www.bohemiancoding.com/sketch -->
    <title>10-Icons/Facebook/Thumbnail Copy 2</title>
    <desc>Created with Sketch.</desc>
    <defs></defs>
    <g id="Page" stroke="none" stroke-width="1" fill="none" fill-rule="evenodd">
        <g id="Atomic-Design-Libary" transform="translate(-1925.000000, -6831.000000)" fill="#3D4A51">
            <g id="10-Icons/Platforms/Instagram/Thumbnail" transform="translate(1925.000000, 6831.000000)">
                <path d="M9.98420131,0 C12.6957549,0 13.0357987,0.0114223195 14.1007002,0.0600875274 C15.1634136,0.108621444 15.8891904,0.277374179 16.5242451,0.524157549 C17.1808315,0.779299781 17.737593,1.12070022 18.2926477,1.67575492 C18.8477024,2.23080963 19.1891028,2.78765864 19.4442451,3.44420131 C19.691116,4.07929978 19.8598687,4.80507659 19.9083589,5.86778993 C19.9569803,6.93269147 19.9684026,7.2726477 19.9684026,9.98420131 C19.9684026,12.6958425 19.9569803,13.0357987 19.9083589,14.1007002 C19.8598687,15.1634136 19.691116,15.8891904 19.4442451,16.5242888 C19.1891028,17.1808315 18.8477024,17.7376805 18.2926477,18.2927352 C17.737593,18.8477899 17.1808315,19.1891904 16.5242451,19.4443326 C15.8891904,19.691116 15.1634136,19.8598687 14.1007002,19.9084026 C13.0357987,19.9569803 12.6957549,19.9684902 9.98420131,19.9684902 C7.2726477,19.9684902 6.9326477,19.9569803 5.86774617,19.9084026 C4.80498906,19.8598687 4.07921225,19.691116 3.44420131,19.4443326 C2.78761488,19.1891904 2.23080963,18.8477899 1.67575492,18.2927352 C1.12070022,17.7376805 0.779299781,17.1808315 0.524201313,16.5242888 C0.277286652,15.8891904 0.108533917,15.1634136 0.0600875274,14.1007002 C0.0114660832,13.0357987 0,12.6958425 0,9.98420131 C0,7.2726477 0.0114660832,6.93269147 0.0600875274,5.86778993 C0.108533917,4.80507659 0.277286652,4.07929978 0.524201313,3.44420131 C0.779299781,2.78765864 1.12070022,2.23080963 1.67575492,1.67575492 C2.23080963,1.12070022 2.78761488,0.779299781 3.44420131,0.524157549 C4.07921225,0.277374179 4.80498906,0.108621444 5.86774617,0.0600875274 C6.9326477,0.0114223195 7.2726477,0 9.98420131,0 Z M9.98420131,1.79894967 C7.31829322,1.79894967 7.00258206,1.80910284 5.94971554,1.8571116 C4.97632385,1.90153173 4.44761488,2.06424508 4.09579869,2.20091904 C3.6297593,2.38205689 3.29715536,2.59842451 2.94778993,2.94778993 C2.59846827,3.29719912 2.38210066,3.6297593 2.2009628,4.09579869 C2.06424508,4.44761488 1.90157549,4.97632385 1.8571116,5.94971554 C1.80914661,7.00258206 1.79894967,7.31829322 1.79894967,9.98420131 C1.79894967,12.6501969 1.80914661,12.9659081 1.8571116,14.0186871 C1.90157549,14.9921663 2.06424508,15.5208753 2.2009628,15.8726915 C2.38210066,16.3386871 2.59846827,16.671291 2.94778993,17.0207002 C3.29715536,17.3700656 3.6297593,17.5864333 4.09579869,17.7675274 C4.44761488,17.9042451 4.97632385,18.0669584 5.94971554,18.111291 C7.002407,18.1593873 7.3180744,18.1694967 9.98420131,18.1694967 C12.6503282,18.1694967 12.9659956,18.1593873 14.0186871,18.111291 C14.9921225,18.0669584 15.5207877,17.9042451 15.8726039,17.7675274 C16.3386871,17.5864333 16.671291,17.3700656 17.0206127,17.0207002 C17.3700656,16.671291 17.5864333,16.3386871 17.7674836,15.8726915 C17.9041575,15.5208753 18.0668709,14.9921663 18.111291,14.0186871 C18.1592998,12.9659081 18.1694967,12.6501969 18.1694967,9.98420131 C18.1694967,7.31829322 18.1592998,7.00258206 18.111291,5.94971554 C18.0668709,4.97632385 17.9041575,4.44761488 17.7674836,4.09579869 C17.5864333,3.6297593 17.3700656,3.29719912 17.0206127,2.94778993 C16.671291,2.59842451 16.3386871,2.38205689 15.8726039,2.20091904 C15.5207877,2.06424508 14.9921225,1.90153173 14.0186871,1.8571116 C12.9658206,1.80910284 12.6501094,1.79894967 9.98420131,1.79894967 Z M10.1270022,13.4550985 C8.28897155,13.4550985 6.79890591,11.9650766 6.79890591,10.1270022 C6.79890591,8.28897155 8.28897155,6.79894967 10.1270022,6.79894967 C11.9650766,6.79894967 13.4550985,8.28897155 13.4550985,10.1270022 C13.4550985,11.9650766 11.9650766,13.4550985 10.1270022,13.4550985 Z M10.1270022,5 C12.9585558,5 15.2540044,7.29549234 15.2540044,10.1270022 C15.2540044,12.9586433 12.9585558,15.2540481 10.1270022,15.2540481 C7.29544858,15.2540481 5,12.9586433 5,10.1270022 C5,7.29549234 7.29544858,5 10.1270022,5 Z M16.3962363,4.19811816 C16.3962363,4.85978118 15.8598249,5.39623632 15.1981182,5.39623632 C14.5364551,5.39623632 14,4.85978118 14,4.19811816 C14,3.53641138 14.5364551,3 15.1981182,3 C15.8598249,3 16.3962363,3.53641138 16.3962363,4.19811816 Z" id="Combined-Shape"></path>
            </g>
        </g>
    </g>
</svg>