<?xml version="1.0" encoding="UTF-8"?>
<svg width="16px" height="14px" viewBox="0 0 16 14" version="1.1" xmlns="http://www.w3.org/2000/svg" xmlns:xlink="http://www.w3.org/1999/xlink">
    <!-- Generator: Sketch 47.1 (45422) - http://www.bohemiancoding.com/sketch -->
    <title>10-Icons/Orientation/Horizontal/Ace Copy 6</title>
    <desc>Created with Sketch.</desc>
    <defs></defs>
    <g id="Pages" stroke="none" stroke-width="1" fill="none" fill-rule="evenodd">
        <g id="Atomic-Design-Libary" transform="translate(-1866.000000, -8774.000000)" fill="#3D4A51">
            <g id="10-Icons/Filter/Ace" transform="translate(1864.000000, 8771.000000)">
                <path d="M11,7 L11,8 C11,8.55228475 10.5522847,9 10,9 L6,9 C5.44771525,9 5,8.55228475 5,8 L5,7 L3,7 C2.44771525,7 2,6.55228475 2,6 C2,5.44771525 2.44771525,5 3,5 L3,5 L5,5 L5,4 L5,4 C5,3.44771525 5.44771525,3 6,3 L10,3 C10.5522847,3 11,3.44771525 11,4 L11,5 L17,5 C17.5522847,5 18,5.44771525 18,6 C18,6.55228475 17.5522847,7 17,7 L11,7 Z M7,5 L7,7 L9,7 L9,5 L7,5 Z" id="Combined-Shape"></path>
                <path d="M11,15 L11,16 C11,16.5522847 10.5522847,17 10,17 L6,17 C5.44771525,17 5,16.5522847 5,16 L5,15 L3,15 C2.44771525,15 2,14.5522847 2,14 C2,13.4477153 2.44771525,13 3,13 L3,13 L5,13 L5,12 L5,12 C5,11.4477153 5.44771525,11 6,11 L10,11 C10.5522847,11 11,11.4477153 11,12 L11,13 L17,13 C17.5522847,13 18,13.4477153 18,14 C18,14.5522847 17.5522847,15 17,15 L11,15 Z M7,13 L7,15 L9,15 L9,13 L7,13 Z" id="Combined-Shape-Copy" transform="translate(10.000000, 14.000000) scale(-1, 1) translate(-10.000000, -14.000000) "></path>
            </g>
        </g>
    </g>
</svg>