<?xml version="1.0" encoding="UTF-8"?>
<svg width="20px" height="20px" viewBox="0 0 20 20" version="1.1" xmlns="http://www.w3.org/2000/svg" xmlns:xlink="http://www.w3.org/1999/xlink">
    <!-- Generator: Sketch 47.1 (45422) - http://www.bohemiancoding.com/sketch -->
    <title>10-Icons/Calendar/Ace Copy 8</title>
    <desc>Created with Sketch.</desc>
    <defs></defs>
    <g id="Page" stroke="none" stroke-width="1" fill="none" fill-rule="evenodd">
        <g id="Atomic-Design-Libary" transform="translate(-1865.000000, -6834.000000)" fill="#3D4A51">
            <g id="10-Icons/Platforms/Instagram/Ace" transform="translate(1865.000000, 6834.000000)">
                <path d="M1,0 L19,0 L19,0 C19.5522847,-1.01453063e-16 20,0.44771525 20,1 L20,19 L20,19 C20,19.5522847 19.5522847,20 19,20 L1,20 L1,20 C0.44771525,20 6.76353751e-17,19.5522847 0,19 L0,1 L0,1 C-6.76353751e-17,0.44771525 0.44771525,1.01453063e-16 1,0 Z M7,4 C5.34314575,4 4,5.34314575 4,7 L4,13 C4,14.6568542 5.34314575,16 7,16 L13,16 C14.6568542,16 16,14.6568542 16,13 L16,7 C16,5.34314575 14.6568542,4 13,4 L7,4 Z M6.8,2 L13.2,2 C15.8509668,2 18,4.1490332 18,6.8 L18,13.2 C18,15.8509668 15.8509668,18 13.2,18 L6.8,18 C4.1490332,18 2,15.8509668 2,13.2 L2,6.8 C2,4.1490332 4.1490332,2 6.8,2 Z M10,13.80625 C12.1021338,13.80625 13.80625,12.1021338 13.80625,10 C13.80625,7.89786617 12.1021338,6.19375 10,6.19375 C7.89786617,6.19375 6.19375,7.89786617 6.19375,10 C6.19375,12.1021338 7.89786617,13.80625 10,13.80625 Z M10,12.175 C8.79878067,12.175 7.825,11.2012193 7.825,10 C7.825,8.79878067 8.79878067,7.825 10,7.825 C11.2012193,7.825 12.175,8.79878067 12.175,10 C12.175,11.2012193 11.2012193,12.175 10,12.175 Z" id="Combined-Shape"></path>
            </g>
        </g>
    </g>
</svg>