<?xml version="1.0" encoding="UTF-8"?>
<svg width="9px" height="13px" viewBox="0 0 9 13" version="1.1" xmlns="http://www.w3.org/2000/svg" xmlns:xlink="http://www.w3.org/1999/xlink">
    <!-- Generator: Sketch 47.1 (45422) - http://www.bohemiancoding.com/sketch -->
    <title>10-Icons/Bold/Ace</title>
    <desc>Created with Sketch.</desc>
    <defs></defs>
    <g id="Page" stroke="none" stroke-width="1" fill="none" fill-rule="evenodd">
        <g id="Atomic-Design-Libary" transform="translate(-1870.000000, -7285.000000)" fill="#3D4A51">
            <g id="10-Icons/Textformatting/Bold/Ace" transform="translate(1864.000000, 7282.000000)">
                <path d="M15,11.4924812 C15,13.7932331 13.3928571,15.0451128 11.2443609,15.0451128 L6,15.0451128 L6,3 L10.9906015,3 C13.4943609,3 14.8308271,4.40413534 14.8308271,6.48496241 C14.8308271,7.85526316 13.8834586,8.61654135 13.5112782,8.87030075 C14.0018797,9.17481203 15,9.80075188 15,11.4924812 Z M12.0394737,11.3233083 C12.0394737,10.8157895 11.768797,10.2744361 10.9567669,10.2744361 L8.96052632,10.2744361 L8.96052632,12.3890977 L10.9567669,12.3890977 C11.768797,12.3890977 12.0394737,11.8308271 12.0394737,11.3233083 Z M11.8703008,6.63721805 C11.8703008,6.16353383 11.6165414,5.65601504 10.8045113,5.65601504 L8.96052632,5.65601504 L8.96052632,7.61842105 L10.8045113,7.61842105 C11.6165414,7.61842105 11.8703008,7.11090226 11.8703008,6.63721805 Z" id="P-B6-Copy-94"></path>
            </g>
        </g>
    </g>
</svg>