<?xml version="1.0" encoding="UTF-8"?>
<svg width="17px" height="15px" viewBox="0 0 17 15" version="1.1" xmlns="http://www.w3.org/2000/svg" xmlns:xlink="http://www.w3.org/1999/xlink">
    <!-- Generator: Sketch 47.1 (45422) - http://www.bohemiancoding.com/sketch -->
    <title>10-Icons/Facebook/Thumbnail Copy 4</title>
    <desc>Created with Sketch.</desc>
    <defs></defs>
    <g id="Page" stroke="none" stroke-width="1" fill="none" fill-rule="evenodd">
        <g id="Atomic-Design-Libary" transform="translate(-1927.000000, -6927.000000)" fill="#3D4A51">
            <g id="10-Icons/Platforms/Blog/Thumbnail" transform="translate(1925.000000, 6924.000000)">
                <path d="M3.5,3 C4.32842712,3 5,3.67157288 5,4.5 L5,10.5 L5,10.5 C5,11.3284271 4.32842712,12 3.5,12 L3.5,12 C2.67157288,12 2,11.3284271 2,10.5 L2,4.5 L2,4.5 C2,3.67157288 2.67157288,3 3.5,3 Z M3.5,15 L17.5,15 C18.3284271,15 19,15.6715729 19,16.5 C19,17.3284271 18.3284271,18 17.5,18 L3.5,18 C2.67157288,18 2,17.3284271 2,16.5 C2,15.6715729 2.67157288,15 3.5,15 L3.5,15 Z M9.5,9 L17.5,9 L17.5,9 C18.3284271,9 19,9.67157288 19,10.5 L19,10.5 C19,11.3284271 18.3284271,12 17.5,12 L9.5,12 C8.67157288,12 8,11.3284271 8,10.5 C8,9.67157288 8.67157288,9 9.5,9 L9.5,9 Z M9.5,3 L17.5,3 C18.3284271,3 19,3.67157288 19,4.5 L19,4.5 C19,5.32842712 18.3284271,6 17.5,6 L9.5,6 C8.67157288,6 8,5.32842712 8,4.5 L8,4.5 L8,4.5 C8,3.67157288 8.67157288,3 9.5,3 Z" id="Combined-Shape"></path>
            </g>
        </g>
    </g>
</svg>