<?xml version="1.0" encoding="UTF-8"?>
<svg width="15px" height="5px" viewBox="0 0 15 5" version="1.1" xmlns="http://www.w3.org/2000/svg" xmlns:xlink="http://www.w3.org/1999/xlink">
    <!-- Generator: Sketch 47.1 (45422) - http://www.bohemiancoding.com/sketch -->
    <title>07-Arrows/Small/Ace Copy 5</title>
    <desc>Created with Sketch.</desc>
    <defs></defs>
    <g id="Page" stroke="none" stroke-width="1" fill="none" fill-rule="evenodd">
        <g id="Atomic-Design-Libary" transform="translate(-1868.000000, -6292.000000)" fill="#3D4A51">
            <g id="10-Icons/More-options/Ace" transform="translate(1865.000000, 6284.000000)">
                <path d="M7.12132034,10.1213203 C7.12132034,11.2258898 6.22588984,12.1213203 5.12132034,12.1213203 C4.01675084,12.1213203 3.12132034,11.2258898 3.12132034,10.1213203 C3.12132034,9.01675084 4.01675084,8.12132034 5.12132034,8.12132034 C6.22588984,8.12132034 7.12132034,9.01675084 7.12132034,10.1213203 Z M4.12132034,10.1213203 C4.12132034,10.6736051 4.56903559,11.1213203 5.12132034,11.1213203 C5.67360509,11.1213203 6.12132034,10.6736051 6.12132034,10.1213203 C6.12132034,9.56903559 5.67360509,9.12132034 5.12132034,9.12132034 C4.56903559,9.12132034 4.12132034,9.56903559 4.12132034,10.1213203 Z M12.1213203,10.1213203 C12.1213203,11.2258898 11.2258898,12.1213203 10.1213203,12.1213203 C9.01675084,12.1213203 8.12132034,11.2258898 8.12132034,10.1213203 C8.12132034,9.01675084 9.01675084,8.12132034 10.1213203,8.12132034 C11.2258898,8.12132034 12.1213203,9.01675084 12.1213203,10.1213203 Z M9.12132034,10.1213203 C9.12132034,10.6736051 9.56903559,11.1213203 10.1213203,11.1213203 C10.6736051,11.1213203 11.1213203,10.6736051 11.1213203,10.1213203 C11.1213203,9.56903559 10.6736051,9.12132034 10.1213203,9.12132034 C9.56903559,9.12132034 9.12132034,9.56903559 9.12132034,10.1213203 Z M17.1213203,10.1213203 C17.1213203,11.2258898 16.2258898,12.1213203 15.1213203,12.1213203 C14.0167508,12.1213203 13.1213203,11.2258898 13.1213203,10.1213203 C13.1213203,9.01675084 14.0167508,8.12132034 15.1213203,8.12132034 C16.2258898,8.12132034 17.1213203,9.01675084 17.1213203,10.1213203 Z M14.1213203,10.1213203 C14.1213203,10.6736051 14.5690356,11.1213203 15.1213203,11.1213203 C15.6736051,11.1213203 16.1213203,10.6736051 16.1213203,10.1213203 C16.1213203,9.56903559 15.6736051,9.12132034 15.1213203,9.12132034 C14.5690356,9.12132034 14.1213203,9.56903559 14.1213203,10.1213203 Z" id="Combined-Shape"></path>
            </g>
        </g>
    </g>
</svg>