<?xml version="1.0" encoding="UTF-8"?>
<svg width="19px" height="20px" viewBox="0 0 19 20" version="1.1" xmlns="http://www.w3.org/2000/svg" xmlns:xlink="http://www.w3.org/1999/xlink">
    <!-- Generator: Sketch 47.1 (45422) - http://www.bohemiancoding.com/sketch -->
    <title>10-Icons/Calendar/Ace Copy</title>
    <desc>Created with Sketch.</desc>
    <defs></defs>
    <g id="Page" stroke="none" stroke-width="1" fill="none" fill-rule="evenodd">
        <g id="Atomic-Design-Libary" transform="translate(-1866.000000, -6536.000000)" fill-rule="nonzero" fill="#3D4A51">
            <g id="10-Icons/Settings/Ace" transform="translate(1865.000000, 6536.000000)">
                <path d="M4.75700132,14.8652452 C5.31735627,14.5570279 6.12769211,14.567151 6.68063312,14.8887353 L8.19083165,15.7666888 C8.74152634,16.0860305 9.15443532,16.7836853 9.17015627,17.4212197 L9.19700135,18.4614656 L11.7777645,18.4589741 L11.804592,17.420743 C11.8203459,16.7832222 12.2322357,16.0862317 12.7836447,15.7655387 L14.2949101,14.8882827 C14.8469853,14.5681927 15.6581936,14.5574345 16.2159355,14.8642369 L17.1176715,15.3570422 L18.41152,13.1013461 L17.5295265,12.5579115 C16.9873678,12.2236483 16.5939655,11.5166241 16.5939657,10.8789316 L16.5926538,9.12295658 C16.5926538,8.48661194 16.9866497,7.77724551 17.5284036,7.44328547 L18.4102455,6.89994439 L17.1179139,4.6434808 L16.2177313,5.13475483 C15.6573764,5.44297214 14.8470406,5.432849 14.2940995,5.11126472 L12.783901,4.23331124 C12.2332087,3.91397089 11.8203032,3.21631928 11.8045764,2.57878029 L11.7777313,1.53853438 L9.19696812,1.54102593 L9.17014067,2.57925701 C9.15438678,3.21677784 8.74249698,3.91376829 8.19108796,4.23446126 L6.67982253,5.11171727 C6.12774733,5.43180735 5.31653907,5.44256546 4.75879721,5.13576307 L3.85706117,4.64295776 L2.56321266,6.89865389 L3.4452062,7.44208847 C3.98736487,7.77635172 4.38076718,8.48337594 4.38076697,9.12106841 L4.38207887,10.8770434 C4.38207887,11.5133881 3.98808301,12.2227545 3.44632905,12.5567145 L2.56448718,13.1000556 L3.85681875,15.3565192 L4.75700132,14.8652452 Z M3.89436812,15.4220819 L3.85681875,15.3565192 L3.78293872,15.3968392 C3.82709959,15.3728038 3.87374167,15.3862257 3.89436812,15.4220819 Z M2.56008429,16.1879464 L1.19616398,13.8064885 C0.804375552,13.1233906 1.0233403,12.2427664 1.69317735,11.8298649 L2.63916268,11.2470022 C2.72525972,11.1939284 2.84361733,10.9808324 2.84361755,10.8776182 L2.84230564,9.12164321 C2.84230564,9.01635516 2.72490038,8.80535395 2.63799284,8.75177181 L1.69172381,8.16873433 C1.02155177,7.75561192 0.801690196,6.87563809 1.1948652,6.19217563 L2.56031747,3.81164425 C2.95357785,3.12597995 3.82658777,2.87494616 4.5216418,3.25293913 L5.49843638,3.78676591 C5.58449161,3.83410262 5.82161114,3.83095798 5.9078131,3.78097868 L7.41818589,2.90424102 C7.50682277,2.8526908 7.62958604,2.64495362 7.63217055,2.54038458 L7.6610496,1.42281867 C7.68327874,0.634173068 8.33118617,0.00263688176 9.12113996,0.00263724034 L11.8528131,0 C12.641093,0 13.2913443,0.633038849 13.3136955,1.42200886 L13.3425479,2.53996385 C13.3451097,2.643812 13.4681306,2.85167001 13.5563909,2.90285172 L15.067435,3.78129625 C15.1539712,3.83162474 15.3893516,3.83456524 15.4785005,3.7855346 L16.4546557,3.25279378 C17.1475774,2.87445474 18.0192728,3.12474567 18.4146484,3.81205359 L19.7785687,6.19351152 C20.1703571,6.87660941 19.9513924,7.75723362 19.2815553,8.17013512 L18.33557,8.75299777 C18.2494729,8.80607163 18.1311153,9.01916757 18.1311151,9.12238179 L18.132427,10.8783568 C18.132427,10.9836448 18.2498323,11.1946461 18.3367398,11.2482282 L19.2830089,11.8312657 C19.9531809,12.2443881 20.1730425,13.1243619 19.7798675,13.8078244 L18.4144152,16.1883557 C18.0211548,16.87402 17.1481449,17.1250538 16.4530909,16.7470609 L15.4762963,16.2132341 C15.3902411,16.1658974 15.1531215,16.169042 15.0669196,16.2190213 L13.5565468,17.095759 C13.4679099,17.1473092 13.3451466,17.3550464 13.3425621,17.4596154 L13.3136831,18.5771813 C13.2914539,19.3658269 12.6435465,19.9973631 11.8535927,19.9973628 L9.1219196,20 C8.3336397,20 7.68338834,19.3669612 7.66103718,18.5779911 L7.63218457,17.4600292 C7.62962386,17.3561874 7.50660327,17.1483307 7.41834175,17.0971483 L5.90729763,16.2187037 C5.82076142,16.1683753 5.58538106,16.1654348 5.49623218,16.2144654 L4.51999956,16.7472485 C3.82709038,17.1255266 2.95544512,16.8752287 2.56008429,16.1879464 Z M8.08788704,14.1731011 C5.79639214,12.8415971 5.01175564,9.89476667 6.33449551,7.59133057 C7.65809223,5.28403674 10.5931774,4.49243838 12.8868948,5.82660169 C15.1786861,7.15827796 15.9633226,10.1051084 14.6405827,12.4085445 C13.316986,14.7158383 10.3819008,15.5074367 8.08788704,14.1731011 Z M8.86111573,12.8430706 C10.4167348,13.7479116 12.4064592,13.211279 13.3062768,11.6427171 C14.2080575,10.0723445 13.6729545,8.06267791 12.1136661,7.1566322 C10.5583434,6.25196346 8.56861896,6.78859612 7.66880136,8.35715802 C6.76702067,9.92753055 7.30212365,11.9371972 8.86111573,12.8430706 Z" id="Page-1"></path>
            </g>
        </g>
    </g>
</svg>