<?xml version="1.0" encoding="UTF-8"?>
<svg width="20px" height="17px" viewBox="0 0 20 17" version="1.1" xmlns="http://www.w3.org/2000/svg" xmlns:xlink="http://www.w3.org/1999/xlink">
    <!-- Generator: Sketch 47.1 (45422) - http://www.bohemiancoding.com/sketch -->
    <title>10-Icons/Facebook/Thumbnail Copy</title>
    <desc>Created with Sketch.</desc>
    <defs></defs>
    <g id="Page" stroke="none" stroke-width="1" fill="none" fill-rule="evenodd">
        <g id="Atomic-Design-Libary" transform="translate(-1925.000000, -6790.000000)" fill="#3D4A51">
            <g id="10-Icons/Platforms/Twitter/Thumbnail" transform="translate(1925.000000, 6788.000000)">
                <path d="M17.9648,6.57582452 C17.9648,6.39822452 17.9648,6.22142452 17.9528,6.04542452 C18.75584,5.46454452 19.44912,4.74534452 20,3.92142452 C19.25112,4.25326452 18.45664,4.47086452 17.6432,4.56702452 C18.49976,4.05422452 19.14088,3.24766452 19.4472,2.29742452 C18.64176,2.77542452 17.76048,3.11222452 16.8416,3.29342452 C15.2876,1.64102452 12.68832,1.56126452 11.03584,3.11526452 C9.97024,4.11742452 9.518,5.61078452 9.8488,7.03582452 C6.54952,6.87038452 3.4756,5.31206452 1.392,2.74862452 C0.30288,4.62350452 0.8592,7.02214452 2.6624,8.22622452 C2.00936,8.20686452 1.37064,8.03070452 0.8,7.71262452 L0.8,7.76462452 C0.80056,9.71790452 2.17744,11.4002245 4.092,11.7870245 C3.48792,11.9517445 2.85408,11.9758245 2.2392,11.8574245 C2.77672,13.5289445 4.31728,14.6740645 6.0728,14.7070245 C4.61976,15.8489445 2.82488,16.4688645 0.9768,16.4670245 C0.65032,16.4663845 0.32416,16.4466245 0,16.4078245 C1.87648,17.6120645 4.05992,18.2507845 6.2896,18.2478245 C13.8368,18.2510245 17.9648,11.9982245 17.9648,6.57582452 Z" id="Page-1-Copy"></path>
            </g>
        </g>
    </g>
</svg>