<?xml version="1.0" encoding="UTF-8"?>
<svg width="20px" height="20px" viewBox="0 0 20 20" version="1.1" xmlns="http://www.w3.org/2000/svg" xmlns:xlink="http://www.w3.org/1999/xlink">
    <!-- Generator: Sketch 47.1 (45422) - http://www.bohemiancoding.com/sketch -->
    <title>10-Icons/Calendar/Ace Copy 6</title>
    <desc>Created with Sketch.</desc>
    <defs></defs>
    <g id="Page" stroke="none" stroke-width="1" fill="none" fill-rule="evenodd">
        <g id="Atomic-Design-Libary" transform="translate(-1865.000000, -6741.000000)" fill="#3D4A51">
            <g id="10-Icons/Platforms/Facebook/Ace" transform="translate(1865.000000, 6741.000000)">
                <path d="M1,0 L19,0 C19.5522847,-1.01453063e-16 20,0.44771525 20,1 L20,19 C20,19.5522847 19.5522847,20 19,20 L1,20 C0.44771525,20 6.76353751e-17,19.5522847 0,19 L0,1 L0,1 C-6.76353751e-17,0.44771525 0.44771525,1.01453063e-16 1,0 L1,0 Z M13.1926437,20 L13.1926437,12.7016912 L15.5513479,12.7016912 L15.904477,9.85735974 L13.1926437,9.85735974 L13.1926437,8.0413798 C13.1926437,7.21787946 13.4127885,6.65663948 14.5498181,6.65663948 L16,6.65600395 L16,4.1120644 C15.7491247,4.07746355 14.8883299,4 13.8868681,4 C11.7961043,4 10.3646871,5.32549518 10.3646871,7.75977121 L10.3646871,9.85735974 L8,9.85735974 L8,12.7016912 L10.3646871,12.7016912 L10.3646871,20 L13.1926437,20 Z" id="Combined-Shape"></path>
            </g>
        </g>
    </g>
</svg>