<?xml version="1.0" encoding="UTF-8"?>
<svg width="11px" height="12px" viewBox="0 0 11 12" version="1.1" xmlns="http://www.w3.org/2000/svg" xmlns:xlink="http://www.w3.org/1999/xlink">
    <!-- Generator: Sketch 47.1 (45422) - http://www.bohemiancoding.com/sketch -->
    <title>07-Arrows/Small/Ace Copy 4</title>
    <desc>Created with Sketch.</desc>
    <defs></defs>
    <g id="Page" stroke="none" stroke-width="1" fill="none" fill-rule="evenodd">
        <g id="Atomic-Design-Libary" transform="translate(-1870.000000, -6240.000000)" fill-rule="nonzero" fill="#3D4A51">
            <g id="10-Icons/Close-Delete/Ace" transform="translate(1865.000000, 6236.000000)">
                <path d="M11.5,9.25 L11.5,3.75 L11.5,3.75 C11.5,3.33578644 11.1642136,3 10.75,3 C10.3357864,3 10,3.33578644 10,3.75 L10,3.75 L10,9.25 L4.5,9.25 C4.08578644,9.25 3.75,9.58578644 3.75,10 C3.75,10.4142136 4.08578644,10.75 4.5,10.75 L10,10.75 L10,16.25 C10,16.6642136 10.3357864,17 10.75,17 C11.1642136,17 11.5,16.6642136 11.5,16.25 L11.5,10.75 L17,10.75 C17.4142136,10.75 17.75,10.4142136 17.75,10 C17.75,9.58578644 17.4142136,9.25 17,9.25 L11.5,9.25 Z" id="Combined-Shape" transform="translate(10.750000, 10.000000) rotate(45.000000) translate(-10.750000, -10.000000) "></path>
            </g>
        </g>
    </g>
</svg>